# xmcd
#
# Track frame offsets:
#	150
#	15899
#	30311
#	47608
#	71586
#	84076
#	100325
#	119036
#	141769
#	158431
#	175368
#
# Disc length: 2709 seconds
#
# Revision: 1
# Processed by: cddbd v1.5.2PL0 Copyright (c) Steve Scherf et al.
# Submitted via: FairStars CD Ripper 1.80
#
DISCID=7d0a930b
DTITLE=Robert Ellis - Robert Ellis
DYEAR=2016
DGENRE=Pop
TTITLE0=Perfect Strangers
TTITLE1=How I Love You
TTITLE2=California
TTITLE3=Amanda Jane
TTITLE4=Drivin'
TTITLE5=The High Road
TTITLE6=Elephant
TTITLE7=You're Not the One
TTITLE8=Screw
TTITLE9=Couples Skate
TTITLE10=It's Not Ok
EXTD=
EXTT0=
EXTT1=
EXTT2=
EXTT3=
EXTT4=
EXTT5=
EXTT6=
EXTT7=
EXTT8=
EXTT9=
EXTT10=
PLAYORDER=
